<svg width="32" height="32" viewBox="0 0 32 32" fill="none" xmlns="http://www.w3.org/2000/svg">
<path d="M20.656 0.927C14.712 -0.805 8.024 1.03 3.905 5.677C-0.714001 10.886 -1.305 18.741 2.505 24.574C6.017 29.95 12.573 32.586 18.849 31.459C26.421 30.099 31.832 23.595 32 15.952C31.848 9.018 27.377 2.885 20.656 0.927ZM15.403 31.296C7.347 30.921 0.956999 23.932 0.956999 15.951C0.956999 7.575 8.045 0.31 16.559 0.706C24.732 1.087 30.83 8.068 31.004 16.051C30.822 24.423 24.044 31.698 15.403 31.296Z" fill="#F59033"/>
<path d="M20.778 20.095C19.814 19.131 18.85 18.168 17.886 17.204C17.513 16.832 16.675 16.278 16.476 15.795C16.297 15.362 16.478 14.473 16.478 13.996C16.478 12.655 16.478 11.314 16.478 9.973C16.478 8.022 16.478 6.072 16.478 4.121C16.478 3.861 15.484 3.927 15.484 4.232C15.484 6.183 15.484 8.133 15.484 10.084C15.484 11.425 15.484 12.766 15.484 14.107C15.484 14.595 15.305 15.502 15.496 15.961C15.665 16.368 16.381 16.859 16.68 17.158C17.615 18.093 18.55 19.028 19.485 19.962C20.926 21.403 22.367 22.843 23.808 24.284C24.02 24.496 24.932 24.249 24.755 24.072C23.43 22.746 22.104 21.421 20.778 20.095Z" fill="#F59033"/>
</svg>
